<svg width="1512" height="982" viewBox="0 0 1512 982" fill="none" xmlns="http://www.w3.org/2000/svg">
<line x1="-31.7954" y1="609.548" x2="1479.78" y2="609.548" stroke="white" stroke-opacity="0.09" stroke-width="1.2607"/>
<line x1="-31.7954" y1="932.286" x2="1479.78" y2="932.286" stroke="white" stroke-opacity="0.09" stroke-width="1.2607"/>
<line x1="-31.7954" y1="286.81" x2="1479.78" y2="286.81" stroke="white" stroke-opacity="0.09" stroke-width="1.2607"/>
<line x1="-31.7954" y1="448.178" x2="1479.78" y2="448.178" stroke="white" stroke-opacity="0.09" stroke-width="1.2607"/>
<line x1="-31.7954" y1="770.916" x2="1479.78" y2="770.916" stroke="white" stroke-opacity="0.09" stroke-width="1.2607"/>
<line x1="-31.7954" y1="125.439" x2="1479.78" y2="125.439" stroke="white" stroke-opacity="0.09" stroke-width="1.2607"/>
<line x1="-31.7954" y1="528.863" x2="1479.78" y2="528.863" stroke="white" stroke-opacity="0.09" stroke-width="1.2607"/>
<line x1="-31.7954" y1="851.601" x2="1479.78" y2="851.601" stroke="white" stroke-opacity="0.09" stroke-width="1.2607"/>
<line x1="-31.7954" y1="206.125" x2="1479.78" y2="206.125" stroke="white" stroke-opacity="0.09" stroke-width="1.2607"/>
<line x1="-31.7954" y1="367.493" x2="1479.78" y2="367.493" stroke="white" stroke-opacity="0.09" stroke-width="1.2607"/>
<line x1="-31.7954" y1="690.233" x2="1479.78" y2="690.233" stroke="white" stroke-opacity="0.09" stroke-width="1.2607"/>
<line x1="-31.7954" y1="44.7544" x2="1479.78" y2="44.7544" stroke="white" stroke-opacity="0.09" stroke-width="1.2607"/>
<line x1="15.4798" y1="-64.2951" x2="15.4798" y2="1103.11" stroke="white" stroke-opacity="0.09" stroke-width="1.2607"/>
<line x1="660.961" y1="-64.2951" x2="660.961" y2="1103.11" stroke="white" stroke-opacity="0.09" stroke-width="1.2607"/>
<line x1="338.22" y1="-64.2953" x2="338.22" y2="1103.11" stroke="white" stroke-opacity="0.09" stroke-width="1.2607"/>
<line x1="983.697" y1="-64.2951" x2="983.696" y2="1103.11" stroke="white" stroke-opacity="0.09" stroke-width="1.2607"/>
<line x1="1306.44" y1="-64.2951" x2="1306.44" y2="1103.11" stroke="white" stroke-opacity="0.09" stroke-width="1.2607"/>
<line x1="176.85" y1="-64.2951" x2="176.85" y2="1103.11" stroke="white" stroke-opacity="0.09" stroke-width="1.2607"/>
<line x1="822.326" y1="-64.2951" x2="822.326" y2="1103.11" stroke="white" stroke-opacity="0.09" stroke-width="1.2607"/>
<line x1="499.59" y1="-64.2951" x2="499.59" y2="1103.11" stroke="white" stroke-opacity="0.09" stroke-width="1.2607"/>
<line x1="1145.07" y1="-64.2953" x2="1145.07" y2="1103.11" stroke="white" stroke-opacity="0.09" stroke-width="1.2607"/>
<line x1="1467.81" y1="-64.2951" x2="1467.81" y2="1103.11" stroke="white" stroke-opacity="0.09" stroke-width="1.2607"/>
<line x1="96.1671" y1="-64.2951" x2="96.167" y2="1103.11" stroke="white" stroke-opacity="0.09" stroke-width="1.2607"/>
<line x1="741.644" y1="-64.2953" x2="741.643" y2="1103.11" stroke="white" stroke-opacity="0.09" stroke-width="1.2607"/>
<line x1="418.903" y1="-64.2951" x2="418.903" y2="1103.11" stroke="white" stroke-opacity="0.09" stroke-width="1.2607"/>
<line x1="1064.38" y1="-64.2951" x2="1064.38" y2="1103.11" stroke="white" stroke-opacity="0.09" stroke-width="1.2607"/>
<line x1="1387.12" y1="-64.2951" x2="1387.12" y2="1103.11" stroke="white" stroke-opacity="0.09" stroke-width="1.2607"/>
<line x1="257.537" y1="-64.2951" x2="257.537" y2="1103.11" stroke="white" stroke-opacity="0.09" stroke-width="1.2607"/>
<line x1="903.014" y1="-64.2951" x2="903.014" y2="1103.11" stroke="white" stroke-opacity="0.09" stroke-width="1.2607"/>
<line x1="580.273" y1="-64.2951" x2="580.273" y2="1103.11" stroke="white" stroke-opacity="0.09" stroke-width="1.2607"/>
<line x1="1225.75" y1="-64.2951" x2="1225.75" y2="1103.11" stroke="white" stroke-opacity="0.09" stroke-width="1.2607"/>
<g opacity="0.5">
<rect x="878.532" y="717.345" width="80.2262" height="80.2262" fill="#5B6124" fill-opacity="0.36"/>
<rect x="475.109" y="717.345" width="80.2262" height="80.2262" fill="#612425" fill-opacity="0.25"/>
<rect x="1201.73" y="153.469" width="80.2262" height="79.0801" fill="#24613D" fill-opacity="0.11"/>
<rect x="555.335" y="73.2432" width="80.2262" height="79.0801" fill="#0DA932" fill-opacity="0.31"/>
<rect x="1120.36" y="233.696" width="80.2262" height="79.0801" fill="#24613D" fill-opacity="0.11"/>
<rect x="473.963" y="153.469" width="80.2262" height="79.0801" fill="#0DA932" fill-opacity="0.31"/>
<rect x="1120.36" y="153.469" width="80.2262" height="79.0801" fill="#24613D" fill-opacity="0.11"/>
<rect x="473.963" y="73.2432" width="80.2262" height="79.0801" fill="#0DA932" fill-opacity="0.31"/>
<rect x="394.882" y="717.345" width="80.2262" height="80.2262" fill="#24613D" fill-opacity="0.25"/>
<rect x="394.882" y="797.571" width="80.2262" height="81.3723" fill="#24613D" fill-opacity="0.25"/>
<rect x="233.284" y="637.119" width="80.2262" height="80.2262" fill="#24613D" fill-opacity="0.25"/>
<rect x="233.284" y="70.951" width="81.3723" height="82.5184" fill="#5C69F5" fill-opacity="0.24"/>
<rect x="151.912" y="-9.27527" width="81.3723" height="80.2262" fill="#5C69F5" fill-opacity="0.24"/>
<rect x="71.6854" y="-8.12919" width="81.3723" height="80.2262" fill="#5C69F5" fill-opacity="0.24"/>
<rect x="151.912" y="70.951" width="81.3723" height="82.5184" fill="#5C69F5" fill-opacity="0.24"/>
<rect x="233.284" y="232.549" width="80.2262" height="81.3723" fill="#F84929" fill-opacity="0.24"/>
<rect x="1201.73" y="637.119" width="80.2262" height="80.2262" fill="#1B8B3B" fill-opacity="0.26"/>
<rect x="1281.96" y="717.345" width="80.2262" height="80.2262" fill="#1B8B3B" fill-opacity="0.26"/>
<rect x="1429.23" y="-3.31297" width="80.2262" height="80.2262" fill="#0AA5ED" fill-opacity="0.61"/>
<rect x="1348.12" y="-4.45908" width="80.2262" height="81.3723" fill="#0AA5ED" fill-opacity="0.61"/>
</g>
</svg>
